<?xml version="1.0" standalone="no"?>
<!-- Generator: Adobe Fireworks 10, Export SVG Extension by Aaron Beall (http://fireworks.abeall.com) . Version: 0.6.1  -->
<!DOCTYPE svg PUBLIC "-//W3C//DTD SVG 1.1//EN" "http://www.w3.org/Graphics/SVG/1.1/DTD/svg11.dtd">
<svg id="Untitled-Seite%201" viewBox="0 0 100 100" style="background-color:#ffffff00" version="1.1"
	xmlns="http://www.w3.org/2000/svg" xmlns:xlink="http://www.w3.org/1999/xlink" xml:space="preserve"
	x="0px" y="0px" width="100px" height="100px"
>
	<path id="Ellipse" d="M 50 0 C 22.3855 0 0 22.3857 0 50 C 0 77.6143 22.3855 100 50 100 C 77.6145 100 100 77.6143 100 50 C 100 22.3857 77.6145 0 50 0 Z" fill="#e00072"/>
	<g>
		<path d="M 55.3652 45.8569 L 53.4971 53.8039 C 52.203 58.946 48.4822 62.0625 44.1952 62.0625 C 40.8788 62.0625 38.9375 59.7251 38.9375 55.44 C 38.9375 46.9477 43.8716 39.9375 49.2101 39.9375 C 52.7692 39.9375 54.931 41.9613 55.3652 45.8569 L 55.3652 45.8569 ZM 54.0625 62.3531 C 54.2796 65.904 56.885 67.9321 61.9934 67.9321 C 66.7043 67.9321 71.334 66.4501 75.0703 63.5639 C 81.468 58.5597 84.9002 51.4913 84.9002 43.2069 C 84.9002 34.8701 81.468 28.0705 74.5017 22.652 C 68.8973 18.617 60.7932 16.1506 52.3647 16.1506 C 38.7889 16.1506 28.3129 20.9334 21.0135 30.1204 C 15.7915 36.4123 13.0625 43.8909 13.0625 52.2514 C 13.0625 62.3159 16.9611 70.3726 24.8153 76.5903 C 30.9575 81.3886 38.8635 83.9375 49.1293 83.9375 C 58.622 83.9375 67.5166 81.0024 75.72 75.0949 L 71.9026 69.9003 C 65.0799 74.6226 57.3193 77.0625 49.1293 77.0625 C 31.778 77.0625 20.9375 67.1521 20.9375 52.0234 C 20.9375 42.5229 25.2715 34.2826 32.8967 28.6224 C 37.8939 24.9168 44.4378 23.0256 52.2838 23.0256 C 66.948 23.0256 77.0999 31.776 77.0999 43.2829 C 77.0999 52.8594 70.603 61.0679 63.4554 61.0679 C 61.7498 61.0679 60.9375 60.3078 60.9375 58.8637 C 60.9375 58.4837 61.0188 58.1037 61.1 57.6477 L 67.1917 35.1638 L 59.201 35.1638 L 57.3916 38.4687 C 55.5823 35.5311 52.7692 34.0625 48.7248 34.0625 C 38.0431 34.0625 30.0625 42.7509 30.0625 54.9115 C 30.0625 63.8036 34.2393 67.9375 42.4156 67.9375 C 47.5115 67.9375 51.0705 66.2694 54.0625 62.3531 L 54.0625 62.3531 Z" fill="#ffffff"/>
	</g>
</svg>