<?xml version="1.0" standalone="no"?>
<!-- Generator: Adobe Fireworks 10, Export SVG Extension by Aaron Beall (http://fireworks.abeall.com) . Version: 0.6.1  -->
<!DOCTYPE svg PUBLIC "-//W3C//DTD SVG 1.1//EN" "http://www.w3.org/Graphics/SVG/1.1/DTD/svg11.dtd">
<svg id="Untitled-Seite%201" viewBox="0 0 100 100" style="background-color:#ffffff00" version="1.1"
	xmlns="http://www.w3.org/2000/svg" xmlns:xlink="http://www.w3.org/1999/xlink" xml:space="preserve"
	x="0px" y="0px" width="100px" height="100px"
>
	<g id="Ebene%201">
		<path d="M 0 50 C 0 65.7585 7.2883 79.8153 18.68 88.98 C 23.1404 87.8368 27.7825 85.722 31.9286 82.5135 C 26.0143 82.2548 17.7857 76.8224 16.2429 70.8726 C 18.3 71.1313 20.6143 71.1313 23.1857 70.8726 C 23.1857 70.6139 23.4429 70.6139 23.7 70.3552 C 16.5 69.0618 10.3286 61.0425 10.3286 55.3513 L 10.3286 53.7992 C 12.3857 54.834 14.4429 55.3513 16.5 55.8687 L 17.7857 55.61 C 14.1857 54.0579 10.5857 46.556 10.5857 43.9691 L 10.5857 39.054 C 11.1 37.2433 11.6143 35.1737 12.6428 33.3629 C 19.0714 42.9344 36.8143 50.9537 46.0714 50.9537 L 47.6143 50.9537 C 47.3571 49.4016 47.1 47.5907 47.1 46.8147 C 47.1 37.2433 54.5571 30 63.8143 30 C 70.2429 30 76.1572 35.4324 76.1572 35.4324 C 77.9572 35.4324 85.9286 31.5521 86.4429 31.5521 C 85.4143 34.3977 82.8428 38.0193 79.5 40.3475 C 79.7571 40.6062 79.5 40.6062 80.2714 40.6062 C 80.7857 40.6062 85.6714 39.3127 88.5 38.278 C 87.2143 40.6062 82.5857 44.7452 80.5286 46.556 L 80.5286 51.471 C 77.7085 81.904 54.952 96.9097 32.9 97 C 38.2349 98.9414 43.9939 100 50 100 C 77.6145 100 100 77.6143 100 50 C 100 22.3857 77.6145 0 50 0 C 22.3855 0 0 22.3857 0 50 Z" fill="#e00072"/>
	</g>
</svg>