<?xml version="1.0" standalone="no"?>
<!-- Generator: Adobe Fireworks 10, Export SVG Extension by Aaron Beall (http://fireworks.abeall.com) . Version: 0.6.1  -->
<!DOCTYPE svg PUBLIC "-//W3C//DTD SVG 1.1//EN" "http://www.w3.org/Graphics/SVG/1.1/DTD/svg11.dtd">
<svg id="Untitled-Seite%201" viewBox="0 0 100 100" style="background-color:#ffffff00" version="1.1"
	xmlns="http://www.w3.org/2000/svg" xmlns:xlink="http://www.w3.org/1999/xlink" xml:space="preserve"
	x="0px" y="0px" width="100px" height="100px"
>
	<g id="Ebene%201">
		<path d="M 50 0 C 22.3855 0 0 22.3857 0 50 C 0 77.6143 22.3855 100 50 100 C 50.3989 100 50.7968 100.0093 51.1935 100 L 51.1935 59.9967 L 40 59.9967 L 40 47.1005 L 51.1935 47.1005 L 51.1935 38.5865 L 51.3853 36.771 C 51.7051 33.14 55.2231 27.5684 59.8284 25.5651 C 60.4041 25.3147 61.0437 25.0016 61.6194 24.8138 C 62.1311 24.626 62.8346 24.4382 63.4743 24.313 C 64.1779 24.1878 65.0093 24.0626 65.7769 24 L 81 24 L 81 36.8962 L 73.9641 36.8962 C 71.9173 36.8336 69.103 39.0873 68.7192 41.2158 C 68.7192 41.341 68.5913 41.7167 68.5913 41.9045 L 68.5913 47.1005 L 81 47.1005 L 81 59.9967 L 68.5913 59.9967 L 68.59 96.43 C 86.9981 89.0524 100 71.0442 100 50 C 100 22.3857 77.6145 0 50 0 Z" fill="#e00072"/>
	</g>
</svg>