<?xml version="1.0" standalone="no"?>
<!-- Generator: Adobe Fireworks 10, Export SVG Extension by Aaron Beall (http://fireworks.abeall.com) . Version: 0.6.1  -->
<!DOCTYPE svg PUBLIC "-//W3C//DTD SVG 1.1//EN" "http://www.w3.org/Graphics/SVG/1.1/DTD/svg11.dtd">
<svg id="Untitled-Seite%201" viewBox="0 0 100 100" style="background-color:#ffffff00" version="1.1"
	xmlns="http://www.w3.org/2000/svg" xmlns:xlink="http://www.w3.org/1999/xlink" xml:space="preserve"
	x="0px" y="0px" width="100px" height="100px"
>
	<g id="Ebene%201">
		<path d="M 35.7955 24.7244 C 35.7955 29.0472 31.9773 31.9292 28.1592 31.9292 C 23.3864 31.9292 21 29.0472 21 24.7244 C 21 20.4016 23.3864 18 28.1592 18 C 32.9318 18 35.7955 20.4016 35.7955 24.7244 ZM 84 51.1418 L 84 79 L 70.6364 79 L 70.6364 53.063 C 68.7273 48.7402 66.3409 47.2992 63.4773 47.2992 C 61.0909 47.2992 56.3182 49.7008 56.3182 53.063 L 56.3182 79 L 42.9545 79 L 42.9545 38.1732 L 56.3182 38.1732 C 56.3182 39.6142 56.3182 41.5355 56.7955 42.9764 C 60.6136 37.6929 63.9545 37.2126 68.7273 37.2126 C 77.3182 37.2126 84 43.937 84 51.1418 ZM 34.8409 38.1732 L 34.8409 79 L 21.4774 79 L 21.4774 38.1732 L 34.8409 38.1732 ZM 50 0 C 22.3855 0 0 22.3857 0 50 C 0 77.6143 22.3855 100 50 100 C 77.6145 100 100 77.6143 100 50 C 100 22.3857 77.6145 0 50 0 Z" fill="#e00072"/>
	</g>
</svg>