<svg baseProfile="tiny" xmlns="http://www.w3.org/2000/svg" width="420" height="100" preserveAspectRatio="xMaxYMax meet" viewBox="0 0 420 100" ><path d="M50 0c-27.614 0-50 22.386-50 50s22.386 50 50 50c.399 0 .797.009 1.194 0v-40.003h-11.194v-12.896h11.194v-8.514l.192-1.816c.32-3.631 3.838-9.203 8.443-11.206.576-.25 1.215-.564 1.791-.751.512-.188 1.215-.376 1.855-.501.704-.125 1.535-.25 2.303-.313h15.223v12.896h-7.036c-2.047-.063-4.861 2.191-5.245 4.32 0 .125-.128.501-.128.689v5.196h12.409v12.896h-12.409l-.001 36.433c18.408-7.378 31.41-25.386 31.41-46.43 0-27.614-22.385-50-50-50z" fill="#e00072"/><g transform="translate(105)"><path d="M35.795 24.724c0 4.323-3.818 7.205-7.636 7.205-4.773 0-7.159-2.882-7.159-7.205s2.386-6.724 7.159-6.724 7.636 2.402 7.636 6.724zm48.205 26.417v27.858h-13.364v-25.937c-1.909-4.323-4.295-5.764-7.159-5.764-2.386 0-7.159 2.402-7.159 5.764v25.937h-13.364v-40.827h13.364c0 1.441 0 3.362.477 4.803 3.818-5.283 7.159-5.764 11.932-5.764 8.591 0 15.273 6.724 15.273 13.929zm-49.159-12.969v40.827h-13.363v-40.827h13.363zm15.159-38.173c-27.614 0-50 22.386-50 50s22.386 50 50 50c27.615 0 50-22.386 50-50s-22.385-50-50-50z" fill="#e00072"/></g><g transform="translate(210)"><path d="M50 0c-27.614 0-50 22.386-50 50s22.386 50 50 50c27.615 0 50-22.386 50-50s-22.385-50-50-50z" fill="#e00072"/><path d="M55.365 45.857l-1.868 7.947c-1.294 5.142-5.015 8.259-9.302 8.259-3.316 0-5.258-2.337-5.258-6.623 0-8.492 4.934-15.502 10.273-15.502 3.559 0 5.721 2.024 6.155 5.919zm-1.303 16.496c.217 3.551 2.822 5.579 7.931 5.579 4.711 0 9.341-1.482 13.077-4.368 6.398-5.004 9.83-12.073 9.83-20.357 0-8.337-3.432-15.136-10.398-20.555-5.604-4.035-13.709-6.501-22.137-6.501-13.576 0-24.052 4.783-31.351 13.97-5.222 6.292-7.951 13.771-7.951 22.131 0 10.065 3.899 18.121 11.753 24.339 6.142 4.798 14.048 7.347 24.314 7.347 9.493 0 18.387-2.935 26.591-8.843l-3.817-5.195c-6.823 4.722-14.583 7.162-22.773 7.162-17.351 0-28.192-9.91-28.192-25.039 0-9.501 4.334-17.741 11.959-23.401 4.997-3.706 11.541-5.597 19.387-5.597 14.664 0 24.816 8.75 24.816 20.257 0 9.577-6.497 17.785-13.645 17.785-1.706 0-2.518-.76-2.518-2.204 0-.38.081-.76.163-1.216l6.092-22.484h-7.991l-1.809 3.305c-1.809-2.938-4.622-4.406-8.667-4.406-10.682 0-18.662 8.688-18.662 20.849 0 8.892 4.177 13.026 12.353 13.026 5.096 0 8.655-1.668 11.647-5.584z" fill="#fff"/></g><g transform="translate(315)"><path d="M0 50c0 15.758 7.288 29.815 18.68 38.98 4.46-1.143 9.102-3.258 13.249-6.467-5.914-.259-14.143-5.691-15.686-11.641 2.057.259 4.371.259 6.943 0 0-.259.257-.259.514-.517-7.2-1.293-13.371-9.313-13.371-15.004v-1.552c2.057 1.035 4.114 1.552 6.171 2.069l1.286-.259c-3.6-1.552-7.2-9.054-7.2-11.641v-4.915c.514-1.811 1.029-3.88 2.057-5.691 6.429 9.571 24.172 17.591 33.429 17.591h1.543c-.257-1.552-.514-3.363-.514-4.139 0-9.571 7.457-16.815 16.714-16.815 6.429 0 12.343 5.432 12.343 5.432 1.8 0 9.771-3.88 10.286-3.88-1.029 2.846-3.6 6.467-6.943 8.795.257.259 0 .259.771.259.514 0 5.4-1.294 8.229-2.328-1.286 2.328-5.914 6.467-7.971 8.278v4.915c-2.82 30.433-25.577 45.439-47.629 45.529 5.335 1.941 11.094 3 17.1 3 27.615 0 50-22.386 50-50s-22.385-50-50-50c-27.614 0-50 22.386-50 50z" fill="#e00072"/></g></svg>